<svg width="230" height="230" viewBox="0 0 230 230" fill="none" xmlns="http://www.w3.org/2000/svg">
<path fill-rule="evenodd" clip-rule="evenodd" d="M225.355 113.456C225.355 174.459 175.901 223.913 114.898 223.913C53.8946 223.913 4.44189 174.459 4.44189 113.456C4.44189 52.4535 53.8946 3 114.898 3C175.901 3 225.355 52.4535 225.355 113.456Z" fill="#B9E5EF"/>
<path fill-rule="evenodd" clip-rule="evenodd" d="M225.355 113.456C225.355 174.459 175.901 223.913 114.898 223.913C53.8946 223.913 4.44189 174.459 4.44189 113.456C4.44189 52.4535 53.8946 3 114.898 3C175.901 3 225.355 52.4535 225.355 113.456Z" stroke="#8BD3E4" stroke-width="0.821468"/>
<path fill-rule="evenodd" clip-rule="evenodd" d="M114.898 166.688C143.951 166.688 167.502 143.136 167.502 114.084C167.502 85.0313 143.951 61.4785 114.898 61.4785C85.8457 61.4785 62.2937 85.0313 62.2937 114.084C62.2937 143.136 85.8457 166.688 114.898 166.688Z" stroke="#8BD3E4" stroke-width="4.92881"/>
<path d="M80.2272 115.279C80.2272 115.279 83.4746 113.032 89.7918 113.032C96.109 113.032 99.3556 115.279 99.3556 115.279" stroke="#8BD3E4" stroke-width="4.92881" stroke-linecap="round"/>
<path d="M125.858 136.002C125.858 136.002 121.215 140.241 114.899 140.241C108.581 140.241 103.939 136.002 103.939 136.002" stroke="#8BD3E4" stroke-width="4.92881" stroke-linecap="round"/>
<path d="M128.05 115.279C128.05 115.279 131.297 113.032 137.613 113.032C143.931 113.032 147.178 115.279 147.178 115.279" stroke="#8BD3E4" stroke-width="4.92881" stroke-linecap="round"/>
<path d="M113.755 63.8701C113.755 63.8701 106.795 72.2984 110.168 77.0215C113.542 81.7437 122.124 82.9985 125.711 80.6074" stroke="#8BD3E4" stroke-width="4.92881" stroke-linecap="round"/>
<circle cx="115" cy="114.559" r="111" stroke="#8BD3E4" stroke-width="7"/>
</svg>
