<svg width="230" height="230" viewBox="0 0 230 230" fill="none" xmlns="http://www.w3.org/2000/svg">
<path fill-rule="evenodd" clip-rule="evenodd" d="M225.796 114.898C225.796 176.146 176.146 225.796 114.898 225.796C53.6514 225.796 4 176.146 4 114.898C4 53.6514 53.6514 4 114.898 4C176.146 4 225.796 53.6514 225.796 114.898Z" fill="#FEE7B7"/>
<path fill-rule="evenodd" clip-rule="evenodd" d="M114.481 169.072C143.65 169.072 167.296 145.426 167.296 116.257C167.296 87.0885 143.65 63.4415 114.481 63.4415C85.3124 63.4415 61.6671 87.0885 61.6671 116.257C61.6671 145.426 85.3124 169.072 114.481 169.072Z" stroke="#FEBE21" stroke-width="4.92881"/>
<path d="M80.298 117.154C80.298 117.154 83.5593 114.898 89.9009 114.898C96.2434 114.898 99.5029 117.154 99.5029 117.154" stroke="#FEBE21" stroke-width="4.92881" stroke-linecap="round"/>
<path d="M125.372 137.965C125.372 137.965 120.71 142.222 114.369 142.222C108.026 142.222 103.365 137.965 103.365 137.965" stroke="#FEBE21" stroke-width="4.92881" stroke-linecap="round"/>
<path d="M128.206 117.154C128.206 117.154 131.466 114.898 137.809 114.898C144.151 114.898 147.411 117.154 147.411 117.154" stroke="#FEBE21" stroke-width="4.92881" stroke-linecap="round"/>
<path d="M113.216 65.2158C113.216 65.2158 106.228 73.6778 109.614 78.4198C113.002 83.1618 121.619 84.4207 125.219 82.02" stroke="#FEBE21" stroke-width="4.92881" stroke-linecap="round"/>
<circle cx="115" cy="115" r="111" stroke="#FEBE21" stroke-width="7"/>
</svg>
