<svg width="230" height="230" viewBox="0 0 230 230" fill="none" xmlns="http://www.w3.org/2000/svg">
<path fill-rule="evenodd" clip-rule="evenodd" d="M225.343 113.456C225.343 174.459 175.889 223.913 114.886 223.913C53.8826 223.913 4.42993 174.459 4.42993 113.456C4.42993 52.4535 53.8826 3 114.886 3C175.889 3 225.343 52.4535 225.343 113.456Z" fill="#A9DCCF"/>
<path fill-rule="evenodd" clip-rule="evenodd" d="M114.886 166.688C143.939 166.688 167.49 143.136 167.49 114.084C167.49 85.0313 143.939 61.4785 114.886 61.4785C85.8336 61.4785 62.2816 85.0313 62.2816 114.084C62.2816 143.136 85.8336 166.688 114.886 166.688Z" stroke="#6FC5AF" stroke-width="4.92881"/>
<path d="M80.215 115.279C80.215 115.279 83.4624 113.032 89.7787 113.032C96.0968 113.032 99.3434 115.279 99.3434 115.279" stroke="#6FC5AF" stroke-width="4.92881" stroke-linecap="round"/>
<path d="M125.846 136.002C125.846 136.002 121.203 140.241 114.887 140.241C108.568 140.241 103.927 136.002 103.927 136.002" stroke="#6FC5AF" stroke-width="4.92881" stroke-linecap="round"/>
<path d="M128.037 115.279C128.037 115.279 131.285 113.032 137.601 113.032C143.918 113.032 147.166 115.279 147.166 115.279" stroke="#6FC5AF" stroke-width="4.92881" stroke-linecap="round"/>
<path d="M113.743 63.8701C113.743 63.8701 106.783 72.2984 110.156 77.0215C113.53 81.7437 122.112 82.9985 125.699 80.6074" stroke="#6FC5AF" stroke-width="4.92881" stroke-linecap="round"/>
<circle cx="115" cy="114.559" r="111" stroke="#6FC5AF" stroke-width="7"/>
</svg>
